<?xml version="1.0" encoding="UTF-8"?>
<!DOCTYPE svg PUBLIC "-//W3C//DTD SVG 1.1//EN" "http://www.w3.org/Graphics/SVG/1.1/DTD/svg11.dtd">
<svg xmlns="http://www.w3.org/2000/svg" version="1.1" width="96px" height="96px" style="shape-rendering:geometricPrecision; text-rendering:geometricPrecision; image-rendering:optimizeQuality; fill-rule:evenodd; clip-rule:evenodd" xmlns:xlink="http://www.w3.org/1999/xlink">
<g><path style="opacity:0.865" fill="#fdfdfd" d="M 3.5,-0.5 C 9.83333,-0.5 16.1667,-0.5 22.5,-0.5C 22.8333,0.5 23.5,1.16667 24.5,1.5C 25.9649,2.73685 27.6316,3.73685 29.5,4.5C 29.8417,5.33825 30.5084,5.67158 31.5,5.5C 35.0213,9.43008 39.3546,12.0967 44.5,13.5C 45.9649,14.7368 47.6316,15.7368 49.5,16.5C 49.8417,17.3382 50.5084,17.6716 51.5,17.5C 57.319,21.9657 63.6524,25.7991 70.5,29C 76.4867,33.9879 83.1533,37.6546 90.5,40C 91.4692,44.7367 91.8025,49.57 91.5,54.5C 86.5153,55.4912 81.8487,57.3245 77.5,60C 68.929,66.088 60.2623,71.9214 51.5,77.5C 50.5084,77.3284 49.8417,77.6618 49.5,78.5C 45.3952,80.1048 41.3952,81.9381 37.5,84C 35.0038,85.331 33.0038,87.1644 31.5,89.5C 30.5084,89.3284 29.8417,89.6618 29.5,90.5C 26.9855,90.7691 24.9855,91.7691 23.5,93.5C 22.1667,93.5 21.5,94.1667 21.5,95.5C 15.5,95.5 9.5,95.5 3.5,95.5C 3.5,63.5 3.5,31.5 3.5,-0.5 Z"/></g>
<g><path style="opacity:0.004" fill="#1f1e1f" d="M 22.5,-0.5 C 23.1667,-0.5 23.8333,-0.5 24.5,-0.5C 24.5,0.166667 24.5,0.833333 24.5,1.5C 23.5,1.16667 22.8333,0.5 22.5,-0.5 Z"/></g>
<g><path style="opacity:0.014" fill="#100f0d" d="M 24.5,1.5 C 26.1667,1.5 27.8333,1.5 29.5,1.5C 29.5,2.5 29.5,3.5 29.5,4.5C 27.6316,3.73685 25.9649,2.73685 24.5,1.5 Z"/></g>
<g><path style="opacity:0.008" fill="#121110" d="M 31.5,5.5 C 35.3662,7.91574 39.6996,9.58241 44.5,10.5C 44.5,11.5 44.5,12.5 44.5,13.5C 39.3546,12.0967 35.0213,9.43008 31.5,5.5 Z"/></g>
<g><path style="opacity:0.017" fill="#070605" d="M 44.5,13.5 C 46.1667,13.5 47.8333,13.5 49.5,13.5C 49.5,14.5 49.5,15.5 49.5,16.5C 47.6316,15.7368 45.9649,14.7368 44.5,13.5 Z"/></g>
<g><path style="opacity:0.022" fill="#100f0f" d="M 51.5,17.5 C 55.2407,16.5985 57.2407,17.9319 57.5,21.5C 60.9079,20.828 63.5745,21.828 65.5,24.5C 67.7067,25.6348 70.0401,26.3015 72.5,26.5C 72.5,27.5 72.5,28.5 72.5,29.5C 75.9496,28.7564 77.6162,30.0897 77.5,33.5C 79.8568,33.3367 82.1902,33.5034 84.5,34C 85.3366,35.0113 85.67,36.1779 85.5,37.5C 87.861,37.6741 90.1944,38.0074 92.5,38.5C 93.8333,44.5 93.8333,50.5 92.5,56.5C 90.1944,56.9926 87.861,57.3259 85.5,57.5C 85.67,58.8221 85.3366,59.9887 84.5,61C 82.1902,61.4966 79.8568,61.6633 77.5,61.5C 77.5,62.8333 77.5,64.1667 77.5,65.5C 75.8333,65.5 74.1667,65.5 72.5,65.5C 72.5,66.5 72.5,67.5 72.5,68.5C 68.6653,68.4173 65.6653,69.9173 63.5,73C 61.5273,73.4955 59.5273,73.6621 57.5,73.5C 57.2407,77.0681 55.2407,78.4015 51.5,77.5C 60.2623,71.9214 68.929,66.088 77.5,60C 81.8487,57.3245 86.5153,55.4912 91.5,54.5C 91.8025,49.57 91.4692,44.7367 90.5,40C 83.1533,37.6546 76.4867,33.9879 70.5,29C 63.6524,25.7991 57.319,21.9657 51.5,17.5 Z"/></g>
<g><path style="opacity:0.204" fill="#130d0f" d="M 1.5,-0.5 C 2.16667,-0.5 2.83333,-0.5 3.5,-0.5C 3.5,31.5 3.5,63.5 3.5,95.5C 2.83333,95.5 2.16667,95.5 1.5,95.5C 1.5,63.5 1.5,31.5 1.5,-0.5 Z"/></g>
<g><path style="opacity:0.008" fill="#0e0e0f" d="M 49.5,78.5 C 49.5,79.5 49.5,80.5 49.5,81.5C 47.8333,81.5 46.1667,81.5 44.5,81.5C 44.5,82.5 44.5,83.5 44.5,84.5C 39.6996,85.4176 35.3662,87.0843 31.5,89.5C 33.0038,87.1644 35.0038,85.331 37.5,84C 41.3952,81.9381 45.3952,80.1048 49.5,78.5 Z"/></g>
<g><path style="opacity:0.021" fill="#1b1a1a" d="M 29.5,90.5 C 29.5858,91.4959 29.2524,92.3292 28.5,93C 26.8659,93.4935 25.1992,93.6602 23.5,93.5C 24.9855,91.7691 26.9855,90.7691 29.5,90.5 Z"/></g>
</svg>
